<svg height="468pt" viewBox="-36 0 468 468.44404" width="468pt" xmlns="http://www.w3.org/2000/svg"><path d="m48.367188 393.984375h.230468l153.945313-.769531-22.445313 67.332031c-.71875 2.15625-.160156 4.53125 1.449219 6.140625 1.605469 1.605469 3.984375 2.167969 6.140625 1.449219l71.121094-23.707031c.042968-.015626.082031-.035157.121094-.050782.164062-.058594.324218-.121094.480468-.195312.066406-.03125.132813-.058594.199219-.09375.167969-.082032.328125-.175782.484375-.273438.039062-.023437.082031-.046875.117188-.070312.191406-.125.375-.261719.550781-.410156.046875-.039063.089843-.082032.136719-.125.085937-.074219.175781-.148438.257812-.230469l132.761719-132.765625c2.34375-2.34375 2.34375-6.140625 0-8.484375l-47.414063-47.414063c-2.34375-2.34375-6.140625-2.34375-8.484375 0l-36.1875 36.183594-.746093-180.484375-.007813-1.71875c-.007813-1.59375-.648437-3.121094-1.78125-4.242187l-103.335937-102.128907c-.984376-.96875-2.273438-1.570312-3.648438-1.699219l-2.148438-.1992182c-.199218-.0195313-.390624-.0195313-.601562-.0273438l-142.859375.6875c-25.792969.125-46.597656 21.132812-46.480469 46.921875l1.441406 299.894531c.152344 25.695313 21.007813 46.453125 46.703126 46.480469zm169.617187-2.660156 98.199219-98.199219 38.929687 38.929688-98.199219 98.199218zm-22.707031 61.636719 16.839844-50.527344 16.84375 16.84375 16.84375 16.835937zm146.984375-185.914063 38.929687 38.929687-17.59375 17.59375-38.929687-38.929687zm-61.5-164.433594-48.058594.234375c-19.167969.089844-34.78125-15.375-34.875-34.542968l-.230469-47.890626zm-258.492188-79.652343c6.464844-6.5625 15.285157-10.265626 24.492188-10.285157l138.796875-.660156.269531 56.347656c.125 25.707031 20.996094 46.480469 46.699219 46.484375h.230468l56.347657-.269531.777343 187.882813-78.722656 78.722656-162.625.808594c-19.167968.089843-34.78125-15.378907-34.871094-34.546876l-1.441406-299.894531c-.070312-9.210937 3.550782-18.0625 10.046875-24.589843zm0 0"/><path d="m165.542969 221.515625h-20.347657c-3.316406 0-6 2.6875-6 6s2.683594 6 6 6h20.347657c3.3125 0 6-2.6875 6-6s-2.6875-6-6-6zm0 0"/><path d="m66.75 182.628906h168.941406c3.3125 0 6-2.683594 6-6 0-3.3125-2.6875-6-6-6h-168.941406c-3.3125 0-6 2.6875-6 6 0 3.316406 2.6875 6 6 6zm0 0"/><path d="m66.75 233.515625h52.660156c3.3125 0 6-2.6875 6-6s-2.6875-6-6-6h-52.660156c-3.3125 0-6 2.6875-6 6s2.6875 6 6 6zm0 0"/></svg>