<svg height="512" viewBox="0 0 74 74" width="512" xmlns="http://www.w3.org/2000/svg"><g id="Numbers"><text fill="#f00" font-family="ArialMT, Arial" font-size="18" transform="translate(31.995 -762.544)">4<tspan x="-5.005" y="124">14</tspan><tspan x="-5.005" y="248">24</tspan><tspan x="-5.005" y="372">34</tspan><tspan x="-5.005" y="496">44</tspan><tspan x="-5.005" y="620">54</tspan><tspan x="-5.005" y="744">64</tspan><tspan x="-5.005" y="868">74</tspan><tspan x="-5.005" y="992">84</tspan><tspan x="-5.005" y="1116">94</tspan><tspan x="-10.011" y="1240">104</tspan><tspan letter-spacing="-.074em" x="-9.343" y="1364">1</tspan><tspan x="-.668" y="1364">14</tspan><tspan x="-10.011" y="1488">124</tspan><tspan x="-10.011" y="1612">134</tspan><tspan x="-10.011" y="1736">144</tspan><tspan x="-10.011" y="1860">154</tspan><tspan x="-10.011" y="1984">164</tspan><tspan x="-10.011" y="2108">174</tspan><tspan x="-10.011" y="2232">184</tspan><tspan x="-10.011" y="2356">194</tspan><tspan x="-10.011" y="2480">204</tspan><tspan x="-10.011" y="2604">214</tspan><tspan x="-10.011" y="2728">224</tspan><tspan x="-10.011" y="2852">234</tspan><tspan x="-10.011" y="2976">244</tspan><tspan x="-10.011" y="3100">254</tspan><tspan x="-10.011" y="3224">264</tspan><tspan x="-10.011" y="3348">274</tspan><tspan x="-10.011" y="3472">284</tspan><tspan x="-10.011" y="3596">294</tspan></text></g><g id="color_styel" data-name="color styel"><g fill="#323c6b"><path d="m50.23 61.5h-.03v-1z"/><path d="m57.865 40.763a.5.5 0 0 1 -.386-.182q-.3-.365-.61-.719a.5.5 0 0 1 .754-.657q.319.365.628.741a.5.5 0 0 1 -.385.818z"/><path d="m55.26 37.838a.5.5 0 0 1 -.355-.148 31.846 31.846 0 0 0 -7.286-5.49.5.5 0 0 1 .481-.877 32.869 32.869 0 0 1 7.515 5.665.5.5 0 0 1 -.355.852z"/></g><path d="m50.17 60.14c0 .29.01.57.03.86h-47.2v-.66a29.485 29.485 0 0 1 21.9-28.57 15.114 15.114 0 0 0 14.94-.01 29.224 29.224 0 0 1 13.29 7.69 30.256 30.256 0 0 1 6.66 10.31 10.4 10.4 0 0 0 -9.62 10.38z" fill="#dbd8dd"/><path d="m50.2 61.5h-47.2a.5.5 0 0 1 -.5-.5v-.66a29.986 29.986 0 0 1 22.273-29.053.491.491 0 0 1 .374.049 14.854 14.854 0 0 0 14.444-.01.5.5 0 0 1 .376-.049 29.771 29.771 0 0 1 13.518 7.823 30.7 30.7 0 0 1 6.771 10.481.5.5 0 0 1 -.429.679 9.942 9.942 0 0 0 -9.157 9.88c0 .278.01.547.029.825a.5.5 0 0 1 -.5.535zm-46.7-1h46.175c0-.119 0-.239 0-.36a10.951 10.951 0 0 1 9.411-10.808 29.658 29.658 0 0 0 -6.306-9.53 28.773 28.773 0 0 0 -12.872-7.502 15.867 15.867 0 0 1 -15.075.01 28.989 28.989 0 0 0 -21.333 28.03z" fill="#323c6b"/><path d="m36.84 33.76a29.224 29.224 0 0 1 13.29 7.69 30.2 30.2 0 0 1 6.195 9.195 10.338 10.338 0 0 1 3.465-.885 30.256 30.256 0 0 0 -6.66-10.31 29.224 29.224 0 0 0 -13.29-7.69 15.114 15.114 0 0 1 -14.94.01" fill="#bbbbcd"/><path d="m19.574 6.24a.5.5 0 0 1 -.353-.854q.387-.385.8-.748a.5.5 0 1 1 .663.748q-.387.344-.754.708a.5.5 0 0 1 -.356.146z" fill="#323c6b"/><path d="m14.22 19.1a.5.5 0 0 1 -.5-.5 18.531 18.531 0 0 1 3.2-10.431.5.5 0 0 1 .828.561 17.534 17.534 0 0 0 -3.028 9.87.5.5 0 0 1 -.5.5z" fill="#323c6b"/><path d="m47.52 18.6a15.15 15.15 0 1 1 -15.15-15.15 15.1 15.1 0 0 1 15.15 15.15z" fill="#eeefee"/><path d="m32.37 34.24a15.676 15.676 0 1 1 7.715-2.04 15.65 15.65 0 0 1 -7.715 2.04zm0-30.29a14.643 14.643 0 0 0 -7.224 27.385 14.853 14.853 0 0 0 14.445-.009 14.637 14.637 0 0 0 -7.221-27.376z" fill="#323c6b"/><path d="m32.37 3.45a15.075 15.075 0 0 0 -9.836 3.65 15.135 15.135 0 0 1 16.7 24.985c.2-.1.406-.208.6-.321a15.137 15.137 0 0 0 -7.464-28.314z" fill="#dbd8dd"/><path d="m32.37 34.24a15.676 15.676 0 1 1 7.715-2.04 15.65 15.65 0 0 1 -7.715 2.04zm0-30.29a14.643 14.643 0 0 0 -7.224 27.385 14.853 14.853 0 0 0 14.445-.009 14.637 14.637 0 0 0 -7.221-27.376z" fill="#323c6b"/><path d="m50.2 61.5h-47.2a.5.5 0 0 1 -.5-.5v-.66a29.986 29.986 0 0 1 22.273-29.053.491.491 0 0 1 .374.049 14.854 14.854 0 0 0 14.444-.01.5.5 0 0 1 .376-.049 29.771 29.771 0 0 1 13.518 7.823 30.7 30.7 0 0 1 6.771 10.481.5.5 0 0 1 -.429.679 9.942 9.942 0 0 0 -9.157 9.88c0 .278.01.547.029.825a.5.5 0 0 1 -.5.535zm-46.7-1h46.175c0-.119 0-.239 0-.36a10.951 10.951 0 0 1 9.411-10.808 29.658 29.658 0 0 0 -6.306-9.53 28.773 28.773 0 0 0 -12.872-7.502 15.867 15.867 0 0 1 -15.075.01 28.989 28.989 0 0 0 -21.333 28.03z" fill="#323c6b"/><path d="m71 60.14a10.418 10.418 0 0 1 -20.8.86c-.02-.29-.03-.57-.03-.86a10.4 10.4 0 0 1 9.62-10.38c.26-.02.53-.03.79-.03a10.411 10.411 0 0 1 10.42 10.41z" fill="#b6d2dd"/><path d="m60.58 71.05a10.972 10.972 0 0 1 -10.88-10.009c-.021-.308-.032-.6-.032-.9a10.946 10.946 0 0 1 10.085-10.88c.271-.021.555-.031.827-.031a10.91 10.91 0 1 1 0 21.82zm0-20.82c-.248 0-.5.01-.752.028a9.942 9.942 0 0 0 -9.158 9.882c0 .278.01.547.029.825a9.917 9.917 0 1 0 9.881-10.735z" fill="#323c6b"/><path d="m64.228 50.4a10.4 10.4 0 0 1 -9.29 18.488 10.407 10.407 0 1 0 9.29-18.488z" fill="#acc6cc"/><g fill="#323c6b"><path d="m60.083 55.124h1v10.026h-1z"/><path d="m55.57 59.637h10.026v1h-10.026z"/><path d="m60.58 71.05a10.972 10.972 0 0 1 -10.88-10.009c-.021-.308-.032-.6-.032-.9a10.946 10.946 0 0 1 10.085-10.88c.271-.021.555-.031.827-.031a10.91 10.91 0 1 1 0 21.82zm0-20.82c-.248 0-.5.01-.752.028a9.942 9.942 0 0 0 -9.158 9.882c0 .278.01.547.029.825a9.917 9.917 0 1 0 9.881-10.735z"/></g><path d="m25.139 37.452c-.013-.032-.028-.064-.044-.1a1.527 1.527 0 0 0 -1.9-.685 6.474 6.474 0 0 0 -1.256.583 1.214 1.214 0 0 0 -.456 1.781 1.532 1.532 0 0 0 1.961.493 4.447 4.447 0 0 1 .984-.455 1.223 1.223 0 0 0 .711-1.617z" fill="#eeefee"/><path d="m19.786 40.773a1.33 1.33 0 0 0 -.243-.423 1.529 1.529 0 0 0 -2-.283 26.212 26.212 0 0 0 -10.051 13.852 1.364 1.364 0 0 0 1.067 1.6 1.377 1.377 0 0 0 1.708-.911 24.14 24.14 0 0 1 9.052-12.436 1.206 1.206 0 0 0 .467-1.399z" fill="#eeefee"/></g></svg>